<svg width="1200" height="760" viewBox="0 0 1200 760" fill="none" xmlns="http://www.w3.org/2000/svg">
  <rect width="1200" height="760" fill="#020409"/>
  <rect width="1200" height="760" fill="url(#spycloud-bg)"/>

  <g opacity="0.16">
    <path d="M90 178H1110" stroke="#BAE6FD" stroke-opacity="0.38"/>
    <path d="M90 302H1110" stroke="#BAE6FD" stroke-opacity="0.28"/>
    <path d="M90 426H1110" stroke="#BAE6FD" stroke-opacity="0.22"/>
    <path d="M90 550H1110" stroke="#BAE6FD" stroke-opacity="0.18"/>
    <path d="M218 84V676" stroke="#BAE6FD" stroke-opacity="0.28"/>
    <path d="M410 84V676" stroke="#BAE6FD" stroke-opacity="0.22"/>
    <path d="M602 84V676" stroke="#BAE6FD" stroke-opacity="0.2"/>
    <path d="M794 84V676" stroke="#BAE6FD" stroke-opacity="0.22"/>
    <path d="M986 84V676" stroke="#BAE6FD" stroke-opacity="0.28"/>
  </g>

  <g opacity="0.2">
    <rect x="178" y="148" width="844" height="464" rx="28" fill="#020617" fill-opacity="0.55" stroke="#E0F2FE" stroke-opacity="0.12" stroke-width="2"/>
    <rect x="236" y="206" width="728" height="348" rx="22" stroke="#67E8F9" stroke-opacity="0.12" stroke-width="2"/>
    <rect x="296" y="262" width="172" height="112" rx="14" stroke="#E0F2FE" stroke-opacity="0.12"/>
    <rect x="514" y="262" width="172" height="112" rx="14" stroke="#E0F2FE" stroke-opacity="0.09"/>
    <rect x="732" y="262" width="172" height="112" rx="14" stroke="#E0F2FE" stroke-opacity="0.12"/>
    <rect x="405" y="420" width="172" height="86" rx="14" stroke="#E0F2FE" stroke-opacity="0.1"/>
    <rect x="623" y="420" width="172" height="86" rx="14" stroke="#E0F2FE" stroke-opacity="0.1"/>
    <path d="M468 318H514" stroke="#67E8F9" stroke-opacity="0.22"/>
    <path d="M686 318H732" stroke="#67E8F9" stroke-opacity="0.22"/>
    <path d="M600 374V420" stroke="#67E8F9" stroke-opacity="0.2"/>
  </g>

  <g opacity="0.34">
    <circle cx="600" cy="380" r="186" stroke="#67E8F9" stroke-opacity="0.12" stroke-width="2"/>
    <circle cx="600" cy="380" r="126" stroke="#E0F2FE" stroke-opacity="0.09" stroke-width="2"/>
    <circle cx="600" cy="380" r="74" fill="#020617" stroke="#BAE6FD" stroke-opacity="0.18" stroke-width="2"/>
  </g>

  <g filter="url(#logo-glow)">
    <path d="M494 340C503 311 530 290 562 290C586 290 608 302 621 321C633 314 647 310 662 310C697 310 727 335 733 369C758 374 777 396 777 423C777 454 752 479 721 479H491C456 479 428 451 428 416C428 381 456 353 491 353C492 349 493 344 494 340Z" fill="#E0F2FE" fill-opacity="0.82"/>
    <path d="M494 340C503 311 530 290 562 290C586 290 608 302 621 321C633 314 647 310 662 310C697 310 727 335 733 369C758 374 777 396 777 423C777 454 752 479 721 479H491C456 479 428 451 428 416C428 381 456 353 491 353C492 349 493 344 494 340Z" stroke="#BAE6FD" stroke-opacity="0.56" stroke-width="5"/>
    <path d="M520 386C536 370 559 361 586 361C620 361 646 376 646 402C646 427 622 438 591 445C569 450 556 454 556 464C556 473 568 478 587 478C607 478 625 472 641 460" stroke="#020617" stroke-opacity="0.78" stroke-width="18" stroke-linecap="round"/>
  </g>

  <text x="600" y="548" text-anchor="middle" fill="#E0F2FE" fill-opacity="0.78" font-family="Arial, Helvetica, sans-serif" font-size="58" font-weight="700" letter-spacing="9">SPYCLOUD</text>
  <text x="600" y="588" text-anchor="middle" fill="#BAE6FD" fill-opacity="0.28" font-family="Arial, Helvetica, sans-serif" font-size="18" font-weight="600" letter-spacing="12">SECURE SYSTEMS</text>

  <g opacity="0.12">
    <path d="M164 614L1036 146" stroke="#E0F2FE"/>
    <path d="M164 146L1036 614" stroke="#E0F2FE"/>
  </g>

  <rect width="1200" height="760" fill="url(#spycloud-vignette)"/>

  <defs>
    <radialGradient id="spycloud-bg" cx="0" cy="0" r="1" gradientUnits="userSpaceOnUse" gradientTransform="translate(600 356) rotate(90) scale(478 758)">
      <stop stop-color="#0E7490" stop-opacity="0.34"/>
      <stop offset="0.44" stop-color="#172554" stop-opacity="0.22"/>
      <stop offset="1" stop-color="#020409" stop-opacity="0"/>
    </radialGradient>
    <radialGradient id="spycloud-vignette" cx="0" cy="0" r="1" gradientUnits="userSpaceOnUse" gradientTransform="translate(600 380) rotate(90) scale(510 800)">
      <stop offset="0.36" stop-color="#020409" stop-opacity="0"/>
      <stop offset="1" stop-color="#020409"/>
    </radialGradient>
    <filter id="logo-glow" x="368" y="230" width="469" height="309" filterUnits="userSpaceOnUse" color-interpolation-filters="sRGB">
      <feFlood flood-opacity="0" result="BackgroundImageFix"/>
      <feColorMatrix in="SourceAlpha" type="matrix" values="0 0 0 0 0 0 0 0 0 0 0 0 0 0 0 0 0 0 127 0" result="hardAlpha"/>
      <feOffset/>
      <feGaussianBlur stdDeviation="30"/>
      <feComposite in2="hardAlpha" operator="out"/>
      <feColorMatrix type="matrix" values="0 0 0 0 0.49 0 0 0 0 0.83 0 0 0 0 0.98 0 0 0 0.32 0"/>
      <feBlend mode="normal" in2="BackgroundImageFix" result="effect1_dropShadow"/>
      <feBlend mode="normal" in="SourceGraphic" in2="effect1_dropShadow" result="shape"/>
    </filter>
  </defs>
</svg>
